# xmcd CD database file
#
# Track frame offsets:
#	150
#	13290
#	26003
#	37500
#	50618
#	61943
#	74590
#	86188
#	99123
#	109475
#	119585
#	131625
#
# Disc length: 1904 seconds
#
# Revision: 3
# Processed by: cddbd v1.5.2PL0 Copyright (c) Steve Scherf et al.
# Submitted via: CDex 1.70beta2
#
DISCID=a7076e0c
DTITLE=Graham Bonney - Star Portrait
DYEAR=1900
DGENRE=Schlager
TTITLE0=Du bist viel zu schön, um alleine nach Hause zu geh'n
TTITLE1=Ich hab' die ganze Nacht nur an dich gedacht
TTITLE2=Hey, Little Lady
TTITLE3=Hallo Taxi
TTITLE4=99,9 Prozent
TTITLE5=Ich mach' ein Interwiew mit deinem Herzen
TTITLE6=Traumgirl
TTITLE7=Das Girl mit dem La-La-La
TTITLE8=Siebenmeilenstiefel
TTITLE9=Wähle 3-3-3
TTITLE10=Papa Joe
TTITLE11=Super Girl
EXTD=^^HEP^^
EXTT0=
EXTT1=
EXTT2=
EXTT3=
EXTT4=
EXTT5=
EXTT6=
EXTT7=
EXTT8=
EXTT9=
EXTT10=
EXTT11=
PLAYORDER=
